:SAMPLES-PER-SECOND 30
:FULLY-SPECIFIED
:DEGREES
578
root  -6.32722 37.7514 21.0396 169.456 53.512 173.923
RightUpLeg  -17.8256 -6.78851 -1.26787
RightLeg  2.86888 -10.4582 3.14429
RightFoot  -3.6315 -0.532813 8.04417
RightToes  2.32829e-010 0 -3.6325e-017
Spine  4.79943 -3.74273 -6.52595
Spine1  8.4406 -5.42187 4.74177
HEad  -3.75215 -28.7365 6.62497
LeftShoulder1  0.466254 2.19826 -29.605
LeftArm  15.584 -18.9794 -53.1498
LeftForeArm  18.887 -15.2726 -8.60125
LeftHand  -0.0441024 3.73931 1.70447
RightShoulder  -0.441186 -4.86964 25.4072
RightArm  17.0514 -4.17711 49.4149
RightForeArm  8.9522 12.1234 7.07043
RightHand  -0.179078 0.988996 -3.3955
LeftUpLeg  20.7182 5.88182 -8.54227
LeftLeg  14.246 -7.38356 -1.70389
LeftFoot  -19.9049 0.819527 9.29613
LeftToes  -3.54706e-010 1.16038e-010 5.28031e-012
579
root  -5.16948 37.765 20.1954 172.03 53.4345 176.099
RightUpLeg  -19.7117 -7.40489 0.980393
RightLeg  7.80118 -9.40306 2.18721
RightFoot  0.565253 -0.00412045 -0.00517129
RightToes  2.32829e-010 0 -3.6325e-017
Spine  4.92319 -4.11532 -4.24035
Spine1  7.95885 -6.01515 5.83411
HEad  -3.91431 -28.2235 5.8077
LeftShoulder1  0.44308 2.28105 -30.1305
LeftArm  8.9907 -17.6653 -52.0458
LeftForeArm  25.2711 -10.9459 -10.2993
LeftHand  -0.0350641 3.69559 1.04524
RightShoulder  -0.419689 -4.79934 25.4324
RightArm  14.2013 -6.10732 48.652
RightForeArm  11.9404 8.97151 7.33394
RightHand  -0.210317 1.48572 -3.70192
LeftUpLeg  22.0856 5.5619 -6.78707
LeftLeg  14.3271 -8.60132 -2.02025
LeftFoot  -18.6703 0.566366 7.09119
LeftToes  -3.54706e-010 1.16038e-010 5.28031e-012
580
root  -3.91466 37.7109 19.2695 174.798 53.8026 178.827
RightUpLeg  -21.1724 -8.58631 3.80194
RightLeg  12.98 -7.9597 0.279857
RightFoot  3.44487 0.317007 -2.33783
RightToes  2.32829e-010 0 -3.6325e-017
Spine  5.12861 -4.37415 -1.21141
Spine1  7.60706 -6.2353 6.16372
HEad  -4.44859 -27.6621 5.36349
LeftShoulder1  0.408897 2.38683 -30.5114
LeftArm  1.81201 -15.8892 -51.6105
LeftForeArm  30.4424 -5.93686 -10.8961
LeftHand  -0.0469391 3.82342 2.0771
RightShoulder  -0.503238 -5.02994 26.1597
RightArm  13.2107 -7.48757 46.7739
RightForeArm  13.5119 7.15256 7.08969
RightHand  -0.162237 0.154195 -3.42944
LeftUpLeg  22.6577 6.15331 -4.05209
LeftLeg  17.0063 -10.6155 -3.25364
LeftFoot  -17.146 0.308577 4.10143
LeftToes  -3.54706e-010 1.16038e-010 5.28031e-012
581
root  -2.7359 37.6213 18.3453 177.68 55.5274 -178.514
RightUpLeg  -22.7814 -9.9956 7.12712
RightLeg  18.554 -3.49691 -1.22548
RightFoot  1.60762 0.441086 -3.78041
RightToes  2.32829e-010 0 -3.6325e-017
Spine  6.02307 -4.43119 2.14588
Spine1  6.47492 -5.95513 6.16741
HEad  -5.00256 -26.3144 4.91373
LeftShoulder1  0.400365 2.42133 -30.8935
LeftArm  -1.15177 -12.3438 -50.8189
LeftForeArm  31.1275 -3.56294 -10.1107
LeftHand  -0.0331951 4.8503 1.86151
RightShoulder  -0.423655 -4.79467 25.899
RightArm  11.7044 -8.68201 45.9257
RightForeArm  14.1532 4.97594 6.49423
RightHand  -0.145759 0.096252 -3.11811
LeftUpLeg  21.2532 7.86086 -1.32208
LeftLeg  22.8365 -12.6396 -5.50555
LeftFoot  -14.2147 0.0841909 -0.488844
LeftToes  -3.54706e-010 1.16038e-010 5.28031e-012
582
root  -1.62407 37.5779 17.5632 -179.864 56.4843 -176.185
RightUpLeg  -23.1108 -9.0873 8.65716
RightLeg  22.2383 -3.15697 -1.68498
RightFoot  0.534229 0.631397 -6.03765
RightToes  2.32829e-010 0 -3.6325e-017
Spine  7.11819 -4.64965 4.51171
Spine1  6.06901 -5.92198 6.62397
HEad  -5.45584 -25.119 5.26882
LeftShoulder1  0.49224 2.14979 -30.2668
LeftArm  -2.46825 -8.59024 -50.6367
LeftForeArm  29.7783 -1.94857 -9.31683
LeftHand  -0.0270195 5.4629 1.65012
RightShoulder  -0.420411 -4.78174 25.9642
RightArm  10.8885 -9.1805 45.2229
RightForeArm  13.1116 3.51699 6.14939
RightHand  -0.181367 0.910919 -3.45164
LeftUpLeg  17.4248 8.89197 1.42891
LeftLeg  32.3934 -14.5643 -9.43628
LeftFoot  -7.77565 0.247171 -6.20721
LeftToes  -3.54706e-010 1.16038e-010 5.28031e-012
583
root  -0.566271 37.562 16.9041 -177.824 55.9396 -174.527
RightUpLeg  -23.1592 -8.68597 9.47029
RightLeg  25.0888 -4.10167 -2.3292
RightFoot  -1.83105 0.568513 -6.93931
RightToes  2.32829e-010 0 -3.6325e-017
Spine  7.70072 -5.10815 5.35567
Spine1  6.20354 -6.45679 8.10429
HEad  -5.94919 -24.3533 5.83801
LeftShoulder1  0.559457 1.94924 -29.882
LeftArm  -2.98241 -5.87961 -50.1882
LeftForeArm  30.6513 -0.620429 -9.06885
LeftHand  -0.0262737 5.73816 1.18733
RightShoulder  -0.442884 -4.84648 26.0851
RightArm  9.55276 -10.0352 44.7165
RightForeArm  11.528 4.08189 5.58738
RightHand  -0.209618 0.846113 -4.00936
LeftUpLeg  11.056 7.32631 2.98057
LeftLeg  43.5807 -13.6092 -13.1028
LeftFoot  2.72422 1.40106 -11.1454
LeftToes  -3.54706e-010 1.16038e-010 5.28031e-012
584
root  0.433974 37.5056 16.3029 -176.223 55.8244 -172.619
RightUpLeg  -22.251 -7.99956 10.4276
RightLeg  27.3162 -4.80876 -2.93346
RightFoot  -4.41904 0.384198 -6.84118
RightToes  2.32829e-010 0 -3.6325e-017
Spine  8.64698 -5.19391 6.83369
Spine1  6.52228 -6.35537 9.08256
HEad  -6.62613 -24.2575 7.02803
LeftShoulder1  0.54784 2.00217 -30.3785
LeftArm  -2.12588 -4.23914 -48.8095
LeftForeArm  32.6919 0.0140721 -9.70949
LeftHand  -0.0284197 6.27538 0.718166
RightShoulder  -0.432891 -4.82388 25.8591
RightArm  9.13755 -11.0462 44.3853
RightForeArm  9.8865 5.68755 5.41077
RightHand  -0.24294 1.88896 -4.04709
LeftUpLeg  4.92097 5.77181 4.52519
LeftLeg  53.1246 -10.719 -14.4576
LeftFoot  12.3238 3.11785 -15.3852
LeftToes  -3.54706e-010 1.16038e-010 5.28031e-012
585
root  1.4691 37.6121 15.6482 -176.19 56.6768 -172.191
RightUpLeg  -20.1504 -7.21224 10.4163
RightLeg  28.2959 -4.85454 -3.07776
RightFoot  -6.48213 0.252076 -6.95289
RightToes  2.32829e-010 0 -3.6325e-017
Spine  9.24018 -5.04769 8.10489
Spine1  7.21397 -5.74316 8.22457
HEad  -6.03023 -24.4021 7.4571
LeftShoulder1  0.489574 2.14906 -30.0602
LeftArm  -2.01571 -2.04742 -47.8295
LeftForeArm  34.7287 -0.896228 -9.90551
LeftHand  -0.036821 6.41128 -0.262365
RightShoulder  -0.491254 -4.97783 26.4846
RightArm  9.74863 -10.561 44.1328
RightForeArm  8.93145 6.8363 5.64445
RightHand  -0.243119 2.13676 -3.88281
LeftUpLeg  -0.25513 4.73503 4.95337
LeftLeg  60.079 -7.26669 -12.8755
LeftFoot  11.4681 2.93083 -14.722
LeftToes  -3.54706e-010 1.16038e-010 5.28031e-012
